<?xml version="1.0" encoding="utf-8"?>
<!-- Generator: Adobe Illustrator 22.0.0, SVG Export Plug-In . SVG Version: 6.00 Build 0)  -->
<svg version="1.1" id="Layer_1" xmlns="http://www.w3.org/2000/svg" xmlns:xlink="http://www.w3.org/1999/xlink" x="0px" y="0px"
	 width="73.8px" height="59px" viewBox="0 0 73.8 59" style="enable-background:new 0 0 73.8 59;" xml:space="preserve">
<style type="text/css">
	.st0{fill:#FABA1E;}
</style>
<path class="st0" d="M45.1,1.2l28.7,28.3L45.1,57.8c-0.4,0.4-0.8,0.7-1.3,0.9c-0.5,0.2-0.9,0.3-1.4,0.3c-0.5,0-0.9-0.1-1.3-0.3
	c-0.4-0.2-0.8-0.5-1.2-0.9c-0.4-0.3-0.7-0.7-0.9-1.2c-0.2-0.5-0.3-0.9-0.3-1.4s0.1-0.9,0.3-1.4c0.2-0.5,0.5-0.8,0.9-1.2l19.7-19.6
	H3.7c-0.5,0-0.9-0.1-1.4-0.3c-0.5-0.2-0.8-0.4-1.2-0.8c-0.4-0.4-0.7-0.8-0.9-1.2C0.1,30.5,0,30,0,29.5c0-0.5,0.1-1,0.3-1.4
	c0.2-0.4,0.5-0.8,0.9-1.2c0.3-0.3,0.7-0.6,1.2-0.7c0.5-0.2,0.9-0.3,1.4-0.3h55.9L39.9,6.2c-0.4-0.3-0.7-0.7-0.9-1.1
	c-0.2-0.4-0.3-0.9-0.3-1.3c0-0.5,0.1-1,0.3-1.5c0.2-0.5,0.5-0.8,0.9-1.2c0.3-0.4,0.7-0.7,1.2-0.9C41.5,0.1,41.9,0,42.4,0
	c0.5,0,0.9,0.1,1.4,0.3C44.2,0.5,44.7,0.8,45.1,1.2"/>
</svg>
