<?xml version="1.0" encoding="iso-8859-1"?>
<!-- Uploaded to: SVG Repo, www.svgrepo.com, Generator: SVG Repo Mixer Tools -->
<svg height="800px" width="800px" version="1.1" id="Layer_1" xmlns="http://www.w3.org/2000/svg" xmlns:xlink="http://www.w3.org/1999/xlink" 
	 viewBox="0 0 512 512" xml:space="preserve">
<g transform="translate(1 1)">
	<g>
		<path style="fill:#FFE100;" d="M220.867,345.344L220.867,345.344l-128.853-9.387c-3.413,0-5.973-1.707-6.827-5.12
			c-0.853-3.413-0.853-5.973,0.853-8.533l76.8-119.467c0.853-1.707,2.56-2.56,4.267-3.413c0,0,0,0,0.853,0l0,0l0,0
			c0.853,0,2.56-0.853,3.413-0.853h187.733c2.56,0,5.12,1.707,6.827,3.413l76.8,119.467c2.56,4.267,1.707,9.387-2.56,11.947
			s-9.387,1.707-11.947-2.56l-75.093-114.347H182.467l46.933,117.76c0.853,2.56,0.853,5.973-0.853,8.533
			C225.987,344.491,223.427,345.344,220.867,345.344z M107.373,319.744l100.693,7.68L167.96,226.731L107.373,319.744z"/>
		<path style="fill:#FFE100;" d="M263.533,327.424c-1.707,0-4.267-0.853-5.12-1.707c-3.413-3.413-4.267-8.533-0.853-11.947
			l93.867-110.933c3.413-3.413,8.533-4.267,11.947-0.853c3.413,3.413,4.267,8.533,0.853,11.947L270.36,324.864
			C268.653,326.571,266.093,327.424,263.533,327.424z"/>
		<path style="fill:#FFE100;" d="M169.667,216.491c-2.56,0-5.973-1.707-7.68-4.267l-25.6-42.667
			c-1.707-4.267-0.853-9.387,3.413-11.947c4.267-1.707,9.387-0.853,11.947,3.413l25.6,42.667c2.56,4.267,0.853,9.387-2.56,11.947
			C173.08,216.491,171.373,216.491,169.667,216.491z"/>
		<path style="fill:#FFE100;" d="M186.733,173.824H127c-5.12,0-8.533-3.413-8.533-8.533s3.413-8.533,8.533-8.533h59.733
			c5.12,0,8.533,3.413,8.533,8.533S191.853,173.824,186.733,173.824z"/>
		<path style="fill:#FFE100;" d="M357.4,216.491c-3.413,0-5.973-1.707-7.68-5.12l-25.6-51.2c-1.707-4.267,0-9.387,3.413-11.093
			l51.2-25.6c4.267-1.707,9.387,0,11.093,3.413c1.707,4.267,0,9.387-3.413,11.093l-43.52,22.187l25.6,46.08
			c1.707,4.267-3.413,6.827-6.827,8.533C359.96,216.491,359.107,216.491,357.4,216.491z"/>
		<path style="fill:#FFE100;" d="M383,139.691c-1.707,0-3.413-0.853-5.12-1.707l-34.133-25.6c-3.413-2.56-4.267-8.533-1.707-11.947
			c2.56-3.413,8.533-4.267,11.947-1.707l34.133,25.6c3.413,2.56,4.267,8.533,1.707,11.947
			C388.12,138.838,385.56,139.691,383,139.691z"/>
	</g>
	<path style="fill:#FECC00;" d="M214.04,344.491c0-14.507,11.093-25.6,25.6-25.6c14.507,0,25.6,11.093,25.6,25.6
		s-11.093,25.6-25.6,25.6C225.133,370.091,214.04,358.998,214.04,344.491"/>
	<path style="fill:#FFE100;" d="M161.133,327.424c0,42.667-28.16,76.8-63.147,76.8s-63.147-34.133-63.147-76.8
		s28.16-76.8,63.147-76.8S161.133,284.758,161.133,327.424"/>
	<path style="fill:#FFFFFF;" d="M34.84,327.424c0-40.107,25.6-73.387,58.027-76.8c-2.56,0-4.267,0-6.827,0
		c-42.667,0-76.8,34.133-76.8,76.8s34.133,76.8,76.8,76.8c2.56,0,4.267,0,6.827,0C60.44,400.811,34.84,367.531,34.84,327.424"/>
	<path style="fill:#FFE100;" d="M350.573,327.424c0-42.667,28.16-76.8,63.147-76.8s63.147,34.133,63.147,76.8
		s-28.16,76.8-63.147,76.8S350.573,370.091,350.573,327.424"/>
	<path style="fill:#FFA800;" d="M476.867,327.424c0,40.107-25.6,73.387-58.027,76.8c2.56,0,4.267,0,6.827,0
		c42.667,0,76.8-34.133,76.8-76.8s-34.133-76.8-76.8-76.8c-2.56,0-4.267,0-6.827,0C451.267,254.038,476.867,287.318,476.867,327.424
		"/>
	<path d="M84.333,412.758C37.4,412.758-1,374.358-1,327.424s38.4-85.333,85.333-85.333s85.333,38.4,85.333,85.333
		S131.267,412.758,84.333,412.758z M84.333,259.158c-37.547,0-68.267,30.72-68.267,68.267s30.72,68.267,68.267,68.267
		s68.267-30.72,68.267-68.267S121.88,259.158,84.333,259.158z"/>
	<path d="M425.667,412.758c-46.933,0-85.333-38.4-85.333-85.333s38.4-85.333,85.333-85.333S511,280.491,511,327.424
		S472.6,412.758,425.667,412.758z M425.667,259.158c-37.547,0-68.267,30.72-68.267,68.267s30.72,68.267,68.267,68.267
		s68.267-30.72,68.267-68.267S463.213,259.158,425.667,259.158z"/>
	<path d="M212.333,345.344L212.333,345.344L83.48,335.958c-3.413,0-5.973-1.707-6.827-5.12c-0.853-3.413-0.853-5.973,0.853-8.533
		l76.8-119.467c0.853-1.707,2.56-2.56,4.267-3.413c0,0,0,0,0.853,0l0,0l0,0c0.853,0,1.707-0.853,3.413-0.853h187.733
		c2.56,0,5.12,1.707,6.827,3.413l76.8,119.467c2.56,4.267,1.707,9.387-2.56,11.947c-4.267,2.56-9.387,1.707-11.947-2.56
		L344.6,216.491H173.933l46.933,117.76c0.853,2.56,0.853,5.973-0.853,8.533C217.453,344.491,214.893,345.344,212.333,345.344z
		 M98.84,319.744l100.693,7.68l-40.107-100.693L98.84,319.744z"/>
	<path d="M255,327.424c-1.707,0-4.267-0.853-5.12-1.707c-3.413-3.413-4.267-8.533-0.853-11.947l93.867-110.933
		c3.413-3.413,8.533-4.267,11.947-0.853c3.413,3.413,4.267,8.533,0.853,11.947l-93.867,110.933
		C260.12,326.571,257.56,327.424,255,327.424z"/>
	<path d="M161.133,216.491c-2.56,0-5.973-1.707-7.68-4.267l-25.6-42.667c-1.707-4.267-0.853-9.387,3.413-11.947
		c4.267-1.707,9.387-0.853,11.947,3.413l25.6,42.667c2.56,4.267,0.853,9.387-2.56,11.947
		C164.547,216.491,162.84,216.491,161.133,216.491z"/>
	<path d="M178.2,173.824h-59.733c-5.12,0-8.533-3.413-8.533-8.533s3.413-8.533,8.533-8.533H178.2c5.12,0,8.533,3.413,8.533,8.533
		S183.32,173.824,178.2,173.824z"/>
	<path d="M348.867,216.491c-3.413,0-5.973-1.707-7.68-5.12l-25.6-51.2c-1.707-4.267,0-9.387,3.413-11.093l51.2-25.6
		c4.267-1.707,9.387,0,11.093,3.413c1.707,4.267,0,9.387-3.413,11.093l-43.52,22.187l22.187,43.52c1.707,4.267,0,9.387-3.413,11.093
		C351.427,216.491,350.573,216.491,348.867,216.491z"/>
	<path d="M374.467,139.691c-1.707,0-3.413-0.853-5.12-1.707l-34.133-25.6c-3.413-2.56-4.267-8.533-1.707-11.947
		c2.56-3.413,8.533-4.267,11.947-1.707l34.133,25.6c3.413,2.56,4.267,8.533,1.707,11.947
		C379.587,138.838,377.027,139.691,374.467,139.691z"/>
	<path d="M237.933,378.624c-18.773,0-34.133-15.36-34.133-34.133s15.36-34.133,34.133-34.133s34.133,15.36,34.133,34.133
		S256.707,378.624,237.933,378.624z M237.933,327.424c-9.387,0-17.067,7.68-17.067,17.067c0,9.387,7.68,17.067,17.067,17.067
		S255,353.878,255,344.491C255,335.104,247.32,327.424,237.933,327.424z"/>
</g>
</svg>