<?xml version="1.0" standalone="no"?>
<svg xmlns:xlink="http://www.w3.org/1999/xlink" id="wave" style="transform:rotate(180deg); transition: 0.3s" viewBox="0 0 1440 220" version="1.1" xmlns="http://www.w3.org/2000/svg"><defs><linearGradient id="sw-gradient-0" x1="0" x2="0" y1="1" y2="0"><stop stop-color="rgba(13, 0, 36, 1)" offset="0%"/><stop stop-color="rgba(13, 0, 36, 0.21)" offset="100%"/></linearGradient></defs><path style="transform:translate(0, 0px); opacity:1" fill="url(#sw-gradient-0)" d="M0,44L10,55C20,66,40,88,60,102.7C80,117,100,125,120,121C140,117,160,103,180,106.3C200,110,220,132,240,121C260,110,280,66,300,66C320,66,340,110,360,117.3C380,125,400,95,420,99C440,103,460,139,480,132C500,125,520,73,540,69.7C560,66,580,110,600,117.3C620,125,640,95,660,77C680,59,700,51,720,44C740,37,760,29,780,44C800,59,820,95,840,102.7C860,110,880,88,900,99C920,110,940,154,960,172.3C980,191,1000,183,1020,176C1040,169,1060,161,1080,150.3C1100,139,1120,125,1140,99C1160,73,1180,37,1200,33C1220,29,1240,59,1260,69.7C1280,81,1300,73,1320,91.7C1340,110,1360,154,1380,157.7C1400,161,1420,125,1430,106.3L1440,88L1440,220L1430,220C1420,220,1400,220,1380,220C1360,220,1340,220,1320,220C1300,220,1280,220,1260,220C1240,220,1220,220,1200,220C1180,220,1160,220,1140,220C1120,220,1100,220,1080,220C1060,220,1040,220,1020,220C1000,220,980,220,960,220C940,220,920,220,900,220C880,220,860,220,840,220C820,220,800,220,780,220C760,220,740,220,720,220C700,220,680,220,660,220C640,220,620,220,600,220C580,220,560,220,540,220C520,220,500,220,480,220C460,220,440,220,420,220C400,220,380,220,360,220C340,220,320,220,300,220C280,220,260,220,240,220C220,220,200,220,180,220C160,220,140,220,120,220C100,220,80,220,60,220C40,220,20,220,10,220L0,220Z"/></svg>