<?xml version="1.0" standalone="no"?>
<svg xmlns:xlink="http://www.w3.org/1999/xlink" id="wave" style="transform:rotate(0deg); transition: 0.3s" viewBox="0 0 1440 110" version="1.1" xmlns="http://www.w3.org/2000/svg"><defs><linearGradient id="sw-gradient-0" x1="0" x2="0" y1="1" y2="0"><stop stop-color="rgba(255, 255, 255, 1)" offset="0%"/><stop stop-color="rgba(255, 130, 44, 1)" offset="100%"/></linearGradient></defs><path style="transform:translate(0, 0px); opacity:1" fill="url(#sw-gradient-0)" d="M0,99L10,84.3C20,70,40,40,60,40.3C80,40,100,70,120,73.3C140,77,160,55,180,44C200,33,220,33,240,34.8C260,37,280,40,300,40.3C320,40,340,37,360,45.8C380,55,400,77,420,88C440,99,460,99,480,82.5C500,66,520,33,540,23.8C560,15,580,29,600,38.5C620,48,640,51,660,44C680,37,700,18,720,20.2C740,22,760,44,780,49.5C800,55,820,44,840,34.8C860,26,880,18,900,22C920,26,940,40,960,51.3C980,62,1000,70,1020,71.5C1040,73,1060,70,1080,71.5C1100,73,1120,81,1140,84.3C1160,88,1180,88,1200,75.2C1220,62,1240,37,1260,27.5C1280,18,1300,26,1320,25.7C1340,26,1360,18,1380,29.3C1400,40,1420,70,1430,84.3L1440,99L1440,110L1430,110C1420,110,1400,110,1380,110C1360,110,1340,110,1320,110C1300,110,1280,110,1260,110C1240,110,1220,110,1200,110C1180,110,1160,110,1140,110C1120,110,1100,110,1080,110C1060,110,1040,110,1020,110C1000,110,980,110,960,110C940,110,920,110,900,110C880,110,860,110,840,110C820,110,800,110,780,110C760,110,740,110,720,110C700,110,680,110,660,110C640,110,620,110,600,110C580,110,560,110,540,110C520,110,500,110,480,110C460,110,440,110,420,110C400,110,380,110,360,110C340,110,320,110,300,110C280,110,260,110,240,110C220,110,200,110,180,110C160,110,140,110,120,110C100,110,80,110,60,110C40,110,20,110,10,110L0,110Z"/></svg>